ffmpeg version git-2026-04-19-de18feb Copyright (c) 2000-2026 the FFmpeg developers
  built with gcc 9 (Ubuntu 9.4.0-1ubuntu1~20.04.2)
  configuration: --enable-shared --enable-gpl --enable-libx264
  libavutil      60. 30.100 / 60. 30.100
  libavcodec     62. 30.100 / 62. 30.100
  libavformat    62. 13.102 / 62. 13.102
  libavdevice    62.  4.100 / 62.  4.100
  libavfilter    11. 15.101 / 11. 15.101
  libswscale      9.  7.100 /  9.  7.100
  libswresample   6.  4.100 /  6.  4.100
[in#0/x11grab @ 0x562e92747c40] Stream #0: not enough frames to estimate rate; consider increasing probesize
Input #0, x11grab, from ':0.0+0,0':
  Duration: N/A, start: 1777443440.113665, bitrate: 3678192 kb/s
  Stream #0:0: Video: rawvideo (BGR[0] / 0x524742), bgr0, 2870x1602, 3678192 kb/s, 25 fps, 1000k tbr, 1000k tbn, start 1777443440.113665
Stream mapping:
  Stream #0:0 -> #0:0 (rawvideo (native) -> h264 (libx264))
[libx264 @ 0x562e92755f00] using cpu capabilities: MMX2 SSE2Fast SSSE3 SSE4.2 AVX FMA3 BMI2 AVX2
[libx264 @ 0x562e92755f00] profile High, level 5.0
[libx264 @ 0x562e92755f00] 264 - core 155 r2917 0a84d98 - H.264/MPEG-4 AVC codec - Copyleft 2003-2018 - http://www.videolan.org/x264.html - options: cabac=1 ref=1 deblock=1:0:0 analyse=0x3:0x113 me=hex subme=2 psy=1 psy_rd=1.00:0.00 mixed_ref=0 me_range=16 chroma_me=1 trellis=0 8x8dct=1 cqm=0 deadzone=21,11 fast_pskip=1 chroma_qp_offset=0 threads=6 lookahead_threads=2 sliced_threads=0 nr=0 decimate=1 interlaced=0 bluray_compat=0 constrained_intra=0 bframes=3 b_pyramid=2 b_adapt=1 b_bias=0 direct=1 weightb=1 open_gop=0 weightp=1 keyint=250 keyint_min=25 scenecut=40 intra_refresh=0 rc_lookahead=10 rc=crf mbtree=1 crf=23.0 qcomp=0.60 qpmin=0 qpmax=69 qpstep=4 ip_ratio=1.40 aq=1:1.00
Output #0, matroska, to '/home/lmy/catkin_ws/recordings_tmp/exp_15b_point/screen.mkv':
  Metadata:
    encoder         : Lavf62.13.102
  Stream #0:0: Video: h264 (H264 / 0x34363248), yuv420p(tv, progressive), 2870x1602, q=2-31, 25 fps, 1k tbn
    Metadata:
      encoder         : Lavc62.30.100 libx264
    Side data:
      CPB properties: bitrate max/min/avg: 0/0/0 buffer size: 0 vbv_delay: N/A
frame=    0 fps=0.0 q=0.0 size=       0KiB time=N/A bitrate=N/A speed=N/A elapsed=0:00:00.50    frame=    6 fps=6.0 q=28.0 size=       1KiB time=00:00:00.16 bitrate=  29.7kbits/s speed=0.16x elapsed=0:00:01.00    frame=   18 fps= 12 q=28.0 size=       1KiB time=00:00:00.64 bitrate=   7.4kbits/s speed=0.427x elapsed=0:00:01.50    frame=   31 fps= 15 q=28.0 size=       1KiB time=00:00:01.16 bitrate=   4.1kbits/s speed=0.58x elapsed=0:00:02.00    frame=   43 fps= 17 q=28.0 size=       1KiB time=00:00:01.64 bitrate=   2.9kbits/s speed=0.656x elapsed=0:00:02.50    frame=   56 fps= 19 q=28.0 size=       1KiB time=00:00:02.16 bitrate=   2.2kbits/s speed=0.72x elapsed=0:00:03.00    frame=   68 fps= 19 q=28.0 size=       1KiB time=00:00:02.64 bitrate=   1.8kbits/s speed=0.753x elapsed=0:00:03.50    frame=   81 fps= 20 q=28.0 size=       1KiB time=00:00:03.16 bitrate=   1.5kbits/s speed=0.789x elapsed=0:00:04.00    frame=   93 fps= 21 q=28.0 size=       1KiB time=00:00:03.64 bitrate=   1.3kbits/s speed=0.808x elapsed=0:00:04.50    frame=  105 fps= 21 q=28.0 size=       1KiB time=00:00:04.12 bitrate=   1.2kbits/s speed=0.823x elapsed=0:00:05.00    frame=  118 fps= 21 q=28.0 size=       1KiB time=00:00:04.64 bitrate=   1.0kbits/s speed=0.843x elapsed=0:00:05.50    frame=  131 fps= 22 q=28.0 size=     163KiB time=00:00:05.16 bitrate= 258.8kbits/s speed=0.859x elapsed=0:00:06.00    frame=  143 fps= 22 q=28.0 size=     163KiB time=00:00:05.64 bitrate= 236.8kbits/s speed=0.867x elapsed=0:00:06.50    frame=  156 fps= 22 q=28.0 size=     163KiB time=00:00:06.16 bitrate= 216.8kbits/s speed=0.879x elapsed=0:00:07.00    frame=  168 fps= 22 q=28.0 size=     163KiB time=00:00:06.64 bitrate= 201.1kbits/s speed=0.885x elapsed=0:00:07.50    frame=  180 fps= 22 q=28.0 size=     163KiB time=00:00:07.12 bitrate= 187.6kbits/s speed=0.889x elapsed=0:00:08.00    frame=  193 fps= 23 q=28.0 size=     163KiB time=00:00:07.64 bitrate= 174.8kbits/s speed=0.898x elapsed=0:00:08.50    frame=  206 fps= 23 q=28.0 size=     163KiB time=00:00:08.16 bitrate= 163.7kbits/s speed=0.906x elapsed=0:00:09.00    frame=  218 fps= 23 q=28.0 size=     163KiB time=00:00:08.64 bitrate= 154.6kbits/s speed=0.909x elapsed=0:00:09.50    frame=  231 fps= 23 q=28.0 size=     163KiB time=00:00:09.16 bitrate= 145.8kbits/s speed=0.915x elapsed=0:00:10.00    frame=  243 fps= 23 q=28.0 size=     163KiB time=00:00:09.64 bitrate= 138.5kbits/s speed=0.917x elapsed=0:00:10.50    frame=  256 fps= 23 q=28.0 size=     256KiB time=00:00:10.16 bitrate= 206.4kbits/s speed=0.923x elapsed=0:00:11.00    frame=  269 fps= 23 q=28.0 size=     256KiB time=00:00:10.68 bitrate= 196.4kbits/s speed=0.928x elapsed=0:00:11.50    frame=  281 fps= 23 q=28.0 size=     256KiB time=00:00:11.16 bitrate= 187.9kbits/s speed=0.929x elapsed=0:00:12.00    frame=  293 fps= 23 q=28.0 size=     256KiB time=00:00:11.64 bitrate= 180.2kbits/s speed=0.93x elapsed=0:00:12.50    frame=  306 fps= 24 q=28.0 size=     256KiB time=00:00:12.16 bitrate= 172.5kbits/s speed=0.935x elapsed=0:00:13.01    frame=  318 fps= 24 q=28.0 size=     256KiB time=00:00:12.64 bitrate= 165.9kbits/s speed=0.936x elapsed=0:00:13.51    frame=  331 fps= 24 q=28.0 size=     256KiB time=00:00:13.16 bitrate= 159.4kbits/s speed=0.939x elapsed=0:00:14.02    frame=  343 fps= 24 q=28.0 size=     256KiB time=00:00:13.68 bitrate= 153.3kbits/s speed=0.942x elapsed=0:00:14.52    frame=  356 fps= 24 q=28.0 size=     256KiB time=00:00:14.16 bitrate= 148.1kbits/s speed=0.943x elapsed=0:00:15.02    frame=  369 fps= 24 q=28.0 size=     256KiB time=00:00:14.68 bitrate= 142.9kbits/s speed=0.946x elapsed=0:00:15.52    frame=  381 fps= 24 q=28.0 size=     256KiB time=00:00:15.16 bitrate= 138.3kbits/s speed=0.946x elapsed=0:00:16.02    frame=  394 fps= 24 q=28.0 size=     256KiB time=00:00:15.68 bitrate= 133.7kbits/s speed=0.949x elapsed=0:00:16.52    frame=  406 fps= 24 q=28.0 size=     256KiB time=00:00:16.16 bitrate= 129.8kbits/s speed=0.949x elapsed=0:00:17.02    frame=  419 fps= 24 q=28.0 size=     256KiB time=00:00:16.68 bitrate= 125.7kbits/s speed=0.952x elapsed=0:00:17.52    frame=  431 fps= 24 q=28.0 size=     256KiB time=00:00:17.16 bitrate= 122.2kbits/s speed=0.952x elapsed=0:00:18.02    frame=  444 fps= 24 q=28.0 size=     256KiB time=00:00:17.68 bitrate= 118.6kbits/s speed=0.954x elapsed=0:00:18.52    frame=  456 fps= 24 q=28.0 size=     256KiB time=00:00:18.16 bitrate= 115.5kbits/s speed=0.954x elapsed=0:00:19.02    frame=  469 fps= 24 q=28.0 size=     256KiB time=00:00:18.68 bitrate= 112.3kbits/s speed=0.957x elapsed=0:00:19.52    frame=  481 fps= 24 q=28.0 size=     256KiB time=00:00:19.16 bitrate= 109.5kbits/s speed=0.957x elapsed=0:00:20.02    frame=  494 fps= 24 q=28.0 size=     256KiB time=00:00:19.68 bitrate= 106.6kbits/s speed=0.959x elapsed=0:00:20.53    frame=  506 fps= 24 q=28.0 size=     512KiB time=00:00:20.16 bitrate= 208.1kbits/s speed=0.959x elapsed=0:00:21.03    frame=  519 fps= 24 q=28.0 size=     512KiB time=00:00:20.68 bitrate= 202.8kbits/s speed=0.96x elapsed=0:00:21.53    frame=  531 fps= 24 q=28.0 size=     512KiB time=00:00:21.16 bitrate= 198.2kbits/s speed=0.96x elapsed=0:00:22.03    frame=  543 fps= 24 q=28.0 size=     512KiB time=00:00:21.64 bitrate= 193.8kbits/s speed=0.96x elapsed=0:00:22.53    frame=  557 fps= 24 q=28.0 size=     512KiB time=00:00:22.20 bitrate= 188.9kbits/s speed=0.964x elapsed=0:00:23.03    frame=  569 fps= 24 q=28.0 size=     512KiB time=00:00:22.68 bitrate= 184.9kbits/s speed=0.964x elapsed=0:00:23.53    frame=  581 fps= 24 q=28.0 size=     512KiB time=00:00:23.16 bitrate= 181.1kbits/s speed=0.964x elapsed=0:00:24.03    frame=  594 fps= 24 q=28.0 size=     512KiB time=00:00:23.68 bitrate= 177.1kbits/s speed=0.965x elapsed=0:00:24.53    frame=  606 fps= 24 q=28.0 size=     512KiB time=00:00:24.16 bitrate= 173.6kbits/s speed=0.965x elapsed=0:00:25.03    frame=  619 fps= 24 q=28.0 size=     512KiB time=00:00:24.68 bitrate= 169.9kbits/s speed=0.966x elapsed=0:00:25.53    frame=  632 fps= 24 q=28.0 size=     768KiB time=00:00:25.20 bitrate= 249.7kbits/s speed=0.968x elapsed=0:00:26.03    frame=  644 fps= 24 q=28.0 size=     768KiB time=00:00:25.68 bitrate= 245.0kbits/s speed=0.968x elapsed=0:00:26.54    frame=  656 fps= 24 q=28.0 size=     768KiB time=00:00:26.16 bitrate= 240.5kbits/s speed=0.967x elapsed=0:00:27.04    frame=  669 fps= 24 q=28.0 size=     768KiB time=00:00:26.68 bitrate= 235.8kbits/s speed=0.969x elapsed=0:00:27.54    frame=  681 fps= 24 q=28.0 size=     768KiB time=00:00:27.16 bitrate= 231.6kbits/s speed=0.969x elapsed=0:00:28.04    frame=  694 fps= 24 q=28.0 size=     768KiB time=00:00:27.68 bitrate= 227.3kbits/s speed=0.97x elapsed=0:00:28.54    frame=  707 fps= 24 q=28.0 size=     768KiB time=00:00:28.20 bitrate= 223.1kbits/s speed=0.971x elapsed=0:00:29.04    frame=  719 fps= 24 q=28.0 size=     768KiB time=00:00:28.68 bitrate= 219.4kbits/s speed=0.971x elapsed=0:00:29.54    frame=  732 fps= 24 q=28.0 size=     768KiB time=00:00:29.20 bitrate= 215.5kbits/s speed=0.972x elapsed=0:00:30.04    frame=  744 fps= 24 q=28.0 size=     768KiB time=00:00:29.68 bitrate= 212.0kbits/s speed=0.971x elapsed=0:00:30.55    frame=  757 fps= 24 q=28.0 size=     768KiB time=00:00:30.20 bitrate= 208.3kbits/s speed=0.972x elapsed=0:00:31.05    frame=  769 fps= 24 q=28.0 size=     768KiB time=00:00:30.68 bitrate= 205.1kbits/s speed=0.972x elapsed=0:00:31.55    frame=  782 fps= 24 q=28.0 size=     768KiB time=00:00:31.20 bitrate= 201.6kbits/s speed=0.973x elapsed=0:00:32.05    frame=  795 fps= 24 q=28.0 size=     768KiB time=00:00:31.72 bitrate= 198.3kbits/s speed=0.974x elapsed=0:00:32.55    frame=  807 fps= 24 q=28.0 size=     768KiB time=00:00:32.20 bitrate= 195.4kbits/s speed=0.974x elapsed=0:00:33.05    frame=  820 fps= 24 q=28.0 size=     768KiB time=00:00:32.72 bitrate= 192.3kbits/s speed=0.975x elapsed=0:00:33.55    frame=  832 fps= 24 q=28.0 size=     768KiB time=00:00:33.20 bitrate= 189.5kbits/s speed=0.975x elapsed=0:00:34.05    frame=  844 fps= 24 q=28.0 size=     768KiB time=00:00:33.68 bitrate= 186.8kbits/s speed=0.975x elapsed=0:00:34.55    frame=  857 fps= 24 q=28.0 size=     768KiB time=00:00:34.20 bitrate= 184.0kbits/s speed=0.976x elapsed=0:00:35.05    frame=  870 fps= 24 q=28.0 size=     768KiB time=00:00:34.72 bitrate= 181.2kbits/s speed=0.976x elapsed=0:00:35.55    frame=  882 fps= 24 q=28.0 size=    1024KiB time=00:00:35.20 bitrate= 238.3kbits/s speed=0.976x elapsed=0:00:36.05    frame=  895 fps= 24 q=28.0 size=    1024KiB time=00:00:35.72 bitrate= 234.8kbits/s speed=0.977x elapsed=0:00:36.55    frame=  907 fps= 24 q=28.0 size=    1024KiB time=00:00:36.20 bitrate= 231.7kbits/s speed=0.977x elapsed=0:00:37.05    frame=  919 fps= 24 q=28.0 size=    1024KiB time=00:00:36.68 bitrate= 228.7kbits/s speed=0.977x elapsed=0:00:37.55    frame=  932 fps= 24 q=28.0 size=    1024KiB time=00:00:37.20 bitrate= 225.5kbits/s speed=0.977x elapsed=0:00:38.05    frame=  944 fps= 24 q=28.0 size=    1024KiB time=00:00:37.68 bitrate= 222.6kbits/s speed=0.977x elapsed=0:00:38.55    frame=  957 fps= 25 q=28.0 size=    1024KiB time=00:00:38.20 bitrate= 219.6kbits/s speed=0.978x elapsed=0:00:39.06    frame=  970 fps= 25 q=28.0 size=    1024KiB time=00:00:38.72 bitrate= 216.6kbits/s speed=0.979x elapsed=0:00:39.56    frame=  982 fps= 25 q=28.0 size=    1024KiB time=00:00:39.20 bitrate= 214.0kbits/s speed=0.979x elapsed=0:00:40.06    frame=  992 fps= 24 q=28.0 size=    1024KiB time=00:00:39.60 bitrate= 211.8kbits/s speed=0.976x elapsed=0:00:40.56    frame= 1004 fps= 24 q=28.0 size=    1024KiB time=00:00:40.08 bitrate= 209.3kbits/s speed=0.976x elapsed=0:00:41.06    frame= 1020 fps= 25 q=28.0 size=    1024KiB time=00:00:40.72 bitrate= 206.0kbits/s speed=0.98x elapsed=0:00:41.56    frame= 1032 fps= 25 q=28.0 size=    1024KiB time=00:00:41.20 bitrate= 203.6kbits/s speed=0.979x elapsed=0:00:42.06    frame= 1045 fps= 25 q=28.0 size=    1024KiB time=00:00:41.72 bitrate= 201.1kbits/s speed=0.98x elapsed=0:00:42.56    frame= 1057 fps= 25 q=28.0 size=    1024KiB time=00:00:42.20 bitrate= 198.8kbits/s speed=0.98x elapsed=0:00:43.06    frame= 1070 fps= 25 q=28.0 size=    1024KiB time=00:00:42.72 bitrate= 196.4kbits/s speed=0.981x elapsed=0:00:43.56    frame= 1082 fps= 25 q=28.0 size=    1024KiB time=00:00:43.20 bitrate= 194.2kbits/s speed=0.98x elapsed=0:00:44.07    frame= 1095 fps= 25 q=28.0 size=    1024KiB time=00:00:43.72 bitrate= 191.9kbits/s speed=0.981x elapsed=0:00:44.57    frame= 1108 fps= 25 q=28.0 size=    1024KiB time=00:00:44.24 bitrate= 189.6kbits/s speed=0.981x elapsed=0:00:45.08    frame= 1120 fps= 25 q=28.0 size=    1024KiB time=00:00:44.72 bitrate= 187.6kbits/s speed=0.981x elapsed=0:00:45.58    frame= 1133 fps= 25 q=28.0 size=    1280KiB time=00:00:45.24 bitrate= 231.8kbits/s speed=0.982x elapsed=0:00:46.08    frame= 1145 fps= 25 q=28.0 size=    1280KiB time=00:00:45.72 bitrate= 229.3kbits/s speed=0.982x elapsed=0:00:46.58    frame= 1157 fps= 25 q=28.0 size=    1280KiB time=00:00:46.20 bitrate= 227.0kbits/s speed=0.981x elapsed=0:00:47.08    frame= 1170 fps= 25 q=28.0 size=    1280KiB time=00:00:46.72 bitrate= 224.4kbits/s speed=0.982x elapsed=0:00:47.58    frame= 1183 fps= 25 q=28.0 size=    1280KiB time=00:00:47.24 bitrate= 222.0kbits/s speed=0.982x elapsed=0:00:48.08    frame= 1195 fps= 25 q=28.0 size=    1280KiB time=00:00:47.72 bitrate= 219.7kbits/s speed=0.982x elapsed=0:00:48.58    frame= 1208 fps= 25 q=28.0 size=    1280KiB time=00:00:48.24 bitrate= 217.4kbits/s speed=0.983x elapsed=0:00:49.08    frame= 1220 fps= 25 q=28.0 size=    1280KiB time=00:00:48.72 bitrate= 215.2kbits/s speed=0.983x elapsed=0:00:49.58    frame= 1232 fps= 25 q=28.0 size=    1280KiB time=00:00:49.20 bitrate= 213.1kbits/s speed=0.982x elapsed=0:00:50.08    frame= 1245 fps= 25 q=28.0 size=    1280KiB time=00:00:49.72 bitrate= 210.9kbits/s speed=0.983x elapsed=0:00:50.59    frame= 1258 fps= 25 q=28.0 size=    1536KiB time=00:00:50.24 bitrate= 250.5kbits/s speed=0.983x elapsed=0:00:51.09    frame= 1270 fps= 25 q=28.0 size=    1536KiB time=00:00:50.72 bitrate= 248.1kbits/s speed=0.983x elapsed=0:00:51.59    frame= 1283 fps= 25 q=28.0 size=    1536KiB time=00:00:51.24 bitrate= 245.6kbits/s speed=0.984x elapsed=0:00:52.09    frame= 1295 fps= 25 q=28.0 size=    1536KiB time=00:00:51.72 bitrate= 243.3kbits/s speed=0.983x elapsed=0:00:52.59    frame= 1308 fps= 25 q=28.0 size=    1536KiB time=00:00:52.24 bitrate= 240.9kbits/s speed=0.984x elapsed=0:00:53.09    frame= 1321 fps= 25 q=28.0 size=    1536KiB time=00:00:52.76 bitrate= 238.5kbits/s speed=0.984x elapsed=0:00:53.60    frame= 1333 fps= 25 q=28.0 size=    1536KiB time=00:00:53.24 bitrate= 236.3kbits/s speed=0.984x elapsed=0:00:54.10    frame= 1346 fps= 25 q=28.0 size=    1536KiB time=00:00:53.76 bitrate= 234.1kbits/s speed=0.985x elapsed=0:00:54.60    frame= 1358 fps= 25 q=28.0 size=    1536KiB time=00:00:54.24 bitrate= 232.0kbits/s speed=0.984x elapsed=0:00:55.10    frame= 1371 fps= 25 q=28.0 size=    1536KiB time=00:00:54.76 bitrate= 229.8kbits/s speed=0.985x elapsed=0:00:55.60    frame= 1383 fps= 25 q=28.0 size=    1536KiB time=00:00:55.24 bitrate= 227.8kbits/s speed=0.985x elapsed=0:00:56.10    frame= 1396 fps= 25 q=28.0 size=    1536KiB time=00:00:55.76 bitrate= 225.7kbits/s speed=0.985x elapsed=0:00:56.60    frame= 1408 fps= 25 q=28.0 size=    1536KiB time=00:00:56.24 bitrate= 223.7kbits/s speed=0.985x elapsed=0:00:57.11    frame= 1421 fps= 25 q=28.0 size=    1536KiB time=00:00:56.76 bitrate= 221.7kbits/s speed=0.985x elapsed=0:00:57.61    frame= 1433 fps= 25 q=28.0 size=    1536KiB time=00:00:57.24 bitrate= 219.8kbits/s speed=0.985x elapsed=0:00:58.11    frame= 1446 fps= 25 q=28.0 size=    1536KiB time=00:00:57.76 bitrate= 217.8kbits/s speed=0.985x elapsed=0:00:58.61    frame= 1458 fps= 25 q=28.0 size=    1536KiB time=00:00:58.24 bitrate= 216.1kbits/s speed=0.985x elapsed=0:00:59.11    frame= 1471 fps= 25 q=28.0 size=    1536KiB time=00:00:58.76 bitrate= 214.1kbits/s speed=0.986x elapsed=0:00:59.61    frame= 1483 fps= 25 q=28.0 size=    1536KiB time=00:00:59.24 bitrate= 212.4kbits/s speed=0.985x elapsed=0:01:00.11    frame= 1496 fps= 25 q=25.0 size=    1536KiB time=00:00:59.76 bitrate= 210.6kbits/s speed=0.986x elapsed=0:01:00.61    frame= 1508 fps= 25 q=28.0 size=    1792KiB time=00:01:00.24 bitrate= 243.7kbits/s speed=0.986x elapsed=0:01:01.11    frame= 1521 fps= 25 q=28.0 size=    1792KiB time=00:01:00.76 bitrate= 241.6kbits/s speed=0.986x elapsed=0:01:01.61    frame= 1534 fps= 25 q=28.0 size=    1792KiB time=00:01:01.28 bitrate= 239.6kbits/s speed=0.987x elapsed=0:01:02.11    frame= 1546 fps= 25 q=28.0 size=    1792KiB time=00:01:01.76 bitrate= 237.7kbits/s speed=0.986x elapsed=0:01:02.61    frame= 1559 fps= 25 q=28.0 size=    1792KiB time=00:01:02.28 bitrate= 235.7kbits/s speed=0.987x elapsed=0:01:03.11    frame= 1571 fps= 25 q=28.0 size=    1792KiB time=00:01:02.76 bitrate= 233.9kbits/s speed=0.987x elapsed=0:01:03.61    frame= 1583 fps= 25 q=28.0 size=    1792KiB time=00:01:03.24 bitrate= 232.1kbits/s speed=0.986x elapsed=0:01:04.11    frame= 1596 fps= 25 q=28.0 size=    1792KiB time=00:01:03.76 bitrate= 230.2kbits/s speed=0.987x elapsed=0:01:04.61    frame= 1608 fps= 25 q=28.0 size=    1792KiB time=00:01:04.24 bitrate= 228.5kbits/s speed=0.987x elapsed=0:01:05.11    frame= 1621 fps= 25 q=28.0 size=    1792KiB time=00:01:04.76 bitrate= 226.7kbits/s speed=0.987x elapsed=0:01:05.61    frame= 1633 fps= 25 q=28.0 size=    1792KiB time=00:01:05.24 bitrate= 225.0kbits/s speed=0.987x elapsed=0:01:06.11    frame= 1646 fps= 25 q=28.0 size=    1792KiB time=00:01:05.76 bitrate= 223.2kbits/s speed=0.987x elapsed=0:01:06.61    frame= 1658 fps= 25 q=28.0 size=    1792KiB time=00:01:06.24 bitrate= 221.6kbits/s speed=0.987x elapsed=0:01:07.11    frame= 1671 fps= 25 q=28.0 size=    1792KiB time=00:01:06.76 bitrate= 219.9kbits/s speed=0.987x elapsed=0:01:07.61    frame= 1683 fps= 25 q=28.0 size=    1792KiB time=00:01:07.24 bitrate= 218.3kbits/s speed=0.987x elapsed=0:01:08.11    frame= 1696 fps= 25 q=28.0 size=    1792KiB time=00:01:07.76 bitrate= 216.6kbits/s speed=0.987x elapsed=0:01:08.61    frame= 1709 fps= 25 q=28.0 size=    1792KiB time=00:01:08.28 bitrate= 215.0kbits/s speed=0.988x elapsed=0:01:09.11    frame= 1721 fps= 25 q=28.0 size=    1792KiB time=00:01:08.76 bitrate= 213.5kbits/s speed=0.988x elapsed=0:01:09.62    frame= 1733 fps= 25 q=28.0 size=    1792KiB time=00:01:09.24 bitrate= 212.0kbits/s speed=0.987x elapsed=0:01:10.12    frame= 1746 fps= 25 q=25.0 size=    1792KiB time=00:01:09.76 bitrate= 210.4kbits/s speed=0.988x elapsed=0:01:10.62    frame= 1759 fps= 25 q=28.0 size=    2048KiB time=00:01:10.28 bitrate= 238.7kbits/s speed=0.988x elapsed=0:01:11.12    frame= 1771 fps= 25 q=28.0 size=    2048KiB time=00:01:10.76 bitrate= 237.1kbits/s speed=0.988x elapsed=0:01:11.62    frame= 1783 fps= 25 q=28.0 size=    2048KiB time=00:01:11.24 bitrate= 235.5kbits/s speed=0.988x elapsed=0:01:12.12    frame= 1796 fps= 25 q=28.0 size=    2048KiB time=00:01:11.76 bitrate= 233.8kbits/s speed=0.988x elapsed=0:01:12.63    frame= 1809 fps= 25 q=28.0 size=    2048KiB time=00:01:12.28 bitrate= 232.1kbits/s speed=0.988x elapsed=0:01:13.13    frame= 1821 fps= 25 q=28.0 size=    2048KiB time=00:01:12.76 bitrate= 230.6kbits/s speed=0.988x elapsed=0:01:13.63    frame= 1834 fps= 25 q=28.0 size=    2048KiB time=00:01:13.28 bitrate= 228.9kbits/s speed=0.988x elapsed=0:01:14.13    frame= 1847 fps= 25 q=28.0 size=    2048KiB time=00:01:13.80 bitrate= 227.3kbits/s speed=0.989x elapsed=0:01:14.63    frame= 1859 fps= 25 q=28.0 size=    2048KiB time=00:01:14.28 bitrate= 225.9kbits/s speed=0.989x elapsed=0:01:15.13    frame= 1872 fps= 25 q=28.0 size=    2048KiB time=00:01:14.80 bitrate= 224.3kbits/s speed=0.989x elapsed=0:01:15.64    frame= 1884 fps= 25 q=28.0 size=    2304KiB time=00:01:15.28 bitrate= 250.7kbits/s speed=0.989x elapsed=0:01:16.14    frame= 1897 fps= 25 q=28.0 size=    2304KiB time=00:01:15.80 bitrate= 249.0kbits/s speed=0.989x elapsed=0:01:16.64    frame= 1909 fps= 25 q=28.0 size=    2304KiB time=00:01:16.28 bitrate= 247.4kbits/s speed=0.989x elapsed=0:01:17.14    frame= 1921 fps= 25 q=28.0 size=    2304KiB time=00:01:16.80 bitrate= 245.8kbits/s speed=0.989x elapsed=0:01:17.64    frame= 1934 fps= 25 q=28.0 size=    2304KiB time=00:01:17.28 bitrate= 244.2kbits/s speed=0.989x elapsed=0:01:18.14    frame= 1946 fps= 25 q=28.0 size=    2304KiB time=00:01:17.76 bitrate= 242.7kbits/s speed=0.989x elapsed=0:01:18.64    frame= 1959 fps= 25 q=28.0 size=    2304KiB time=00:01:18.28 bitrate= 241.1kbits/s speed=0.989x elapsed=0:01:19.14    frame= 1972 fps= 25 q=28.0 size=    2304KiB time=00:01:18.80 bitrate= 239.5kbits/s speed=0.989x elapsed=0:01:19.64    frame= 1984 fps= 25 q=28.0 size=    2304KiB time=00:01:19.28 bitrate= 238.1kbits/s speed=0.989x elapsed=0:01:20.14    frame= 1997 fps= 25 q=28.0 size=    2304KiB time=00:01:19.80 bitrate= 236.5kbits/s speed=0.989x elapsed=0:01:20.64    frame= 2009 fps= 25 q=28.0 size=    2304KiB time=00:01:20.28 bitrate= 235.1kbits/s speed=0.989x elapsed=0:01:21.14    frame= 2021 fps= 25 q=28.0 size=    2304KiB time=00:01:20.76 bitrate= 233.7kbits/s speed=0.989x elapsed=0:01:21.64    frame= 2034 fps= 25 q=28.0 size=    2304KiB time=00:01:21.28 bitrate= 232.2kbits/s speed=0.989x elapsed=0:01:22.15    frame= 2046 fps= 25 q=28.0 size=    2304KiB time=00:01:21.76 bitrate= 230.9kbits/s speed=0.989x elapsed=0:01:22.65    frame= 2059 fps= 25 q=28.0 size=    2304KiB time=00:01:22.28 bitrate= 229.4kbits/s speed=0.99x elapsed=0:01:23.15    frame= 2072 fps= 25 q=28.0 size=    2304KiB time=00:01:22.80 bitrate= 228.0kbits/s speed=0.99x elapsed=0:01:23.65    frame= 2084 fps= 25 q=28.0 size=    2304KiB time=00:01:23.28 bitrate= 226.6kbits/s speed=0.99x elapsed=0:01:24.15    frame= 2096 fps= 25 q=28.0 size=    2304KiB time=00:01:23.76 bitrate= 225.3kbits/s speed=0.989x elapsed=0:01:24.65    frame= 2109 fps= 25 q=28.0 size=    2304KiB time=00:01:24.28 bitrate= 223.9kbits/s speed=0.99x elapsed=0:01:25.15    frame= 2122 fps= 25 q=28.0 size=    2304KiB time=00:01:24.80 bitrate= 222.6kbits/s speed=0.99x elapsed=0:01:25.65    frame= 2133 fps= 25 q=28.0 size=    2560KiB time=00:01:25.24 bitrate= 246.0kbits/s speed=0.989x elapsed=0:01:26.15    frame= 2147 fps= 25 q=28.0 size=    2560KiB time=00:01:25.80 bitrate= 244.4kbits/s speed=0.99x elapsed=0:01:26.65    frame= 2160 fps= 25 q=28.0 size=    2560KiB time=00:01:26.32 bitrate= 243.0kbits/s speed=0.99x elapsed=0:01:27.15    frame= 2171 fps= 25 q=28.0 size=    2560KiB time=00:01:26.76 bitrate= 241.7kbits/s speed=0.99x elapsed=0:01:27.65    frame= 2183 fps= 25 q=28.0 size=    2560KiB time=00:01:27.24 bitrate= 240.4kbits/s speed=0.99x elapsed=0:01:28.16    frame= 2197 fps= 25 q=28.0 size=    2560KiB time=00:01:27.80 bitrate= 238.9kbits/s speed=0.99x elapsed=0:01:28.66    frame= 2209 fps= 25 q=28.0 size=    2560KiB time=00:01:28.28 bitrate= 237.6kbits/s speed=0.99x elapsed=0:01:29.16    frame= 2222 fps= 25 q=28.0 size=    2560KiB time=00:01:28.80 bitrate= 236.2kbits/s speed=0.99x elapsed=0:01:29.66    frame= 2234 fps= 25 q=28.0 size=    2560KiB time=00:01:29.28 bitrate= 234.9kbits/s speed=0.99x elapsed=0:01:30.16    frame= 2247 fps= 25 q=28.0 size=    2560KiB time=00:01:29.80 bitrate= 233.5kbits/s speed=0.99x elapsed=0:01:30.67    frame= 2260 fps= 25 q=28.0 size=    2560KiB time=00:01:30.32 bitrate= 232.2kbits/s speed=0.991x elapsed=0:01:31.17    frame= 2272 fps= 25 q=28.0 size=    2560KiB time=00:01:30.80 bitrate= 231.0kbits/s speed=0.99x elapsed=0:01:31.67    frame= 2285 fps= 25 q=28.0 size=    2560KiB time=00:01:31.32 bitrate= 229.6kbits/s speed=0.991x elapsed=0:01:32.17    frame= 2298 fps= 25 q=28.0 size=    2560KiB time=00:01:31.84 bitrate= 228.3kbits/s speed=0.991x elapsed=0:01:32.67    frame= 2310 fps= 25 q=28.0 size=    2560KiB time=00:01:32.32 bitrate= 227.2kbits/s speed=0.991x elapsed=0:01:33.17    frame= 2323 fps= 25 q=28.0 size=    2560KiB time=00:01:32.84 bitrate= 225.9kbits/s speed=0.991x elapsed=0:01:33.67    frame= 2335 fps= 25 q=28.0 size=    2560KiB time=00:01:33.32 bitrate= 224.7kbits/s speed=0.991x elapsed=0:01:34.17    frame= 2348 fps= 25 q=28.0 size=    2560KiB time=00:01:33.84 bitrate= 223.5kbits/s speed=0.991x elapsed=0:01:34.67    frame= 2360 fps= 25 q=28.0 size=    2560KiB time=00:01:34.32 bitrate= 222.3kbits/s speed=0.991x elapsed=0:01:35.17    frame= 2373 fps= 25 q=28.0 size=    2560KiB time=00:01:34.84 bitrate= 221.1kbits/s speed=0.991x elapsed=0:01:35.68    frame= 2385 fps= 25 q=28.0 size=    2816KiB time=00:01:35.32 bitrate= 242.0kbits/s speed=0.991x elapsed=0:01:36.18    frame= 2398 fps= 25 q=28.0 size=    2816KiB time=00:01:35.84 bitrate= 240.7kbits/s speed=0.991x elapsed=0:01:36.68    frame= 2410 fps= 25 q=28.0 size=    2816KiB time=00:01:36.32 bitrate= 239.5kbits/s speed=0.991x elapsed=0:01:37.18    frame= 2422 fps= 25 q=28.0 size=    2816KiB time=00:01:36.84 bitrate= 238.2kbits/s speed=0.991x elapsed=0:01:37.68    frame= 2435 fps= 25 q=28.0 size=    2816KiB time=00:01:37.32 bitrate= 237.0kbits/s speed=0.991x elapsed=0:01:38.18    frame= 2447 fps= 25 q=28.0 size=    2816KiB time=00:01:37.80 bitrate= 235.9kbits/s speed=0.991x elapsed=0:01:38.68    frame= 2460 fps= 25 q=28.0 size=    2816KiB time=00:01:38.32 bitrate= 234.6kbits/s speed=0.991x elapsed=0:01:39.18    frame= 2473 fps= 25 q=28.0 size=    2816KiB time=00:01:38.84 bitrate= 233.4kbits/s speed=0.992x elapsed=0:01:39.68    frame= 2485 fps= 25 q=28.0 size=    2816KiB time=00:01:39.32 bitrate= 232.3kbits/s speed=0.991x elapsed=0:01:40.18    frame= 2497 fps= 25 q=28.0 size=    2816KiB time=00:01:39.80 bitrate= 231.1kbits/s speed=0.991x elapsed=0:01:40.68    frame= 2510 fps= 25 q=28.0 size=    2816KiB time=00:01:40.32 bitrate= 230.0kbits/s speed=0.991x elapsed=0:01:41.18    frame= 2523 fps= 25 q=28.0 size=    2816KiB time=00:01:40.84 bitrate= 228.8kbits/s speed=0.992x elapsed=0:01:41.68    frame= 2535 fps= 25 q=28.0 size=    2816KiB time=00:01:41.32 bitrate= 227.7kbits/s speed=0.992x elapsed=0:01:42.18    frame= 2547 fps= 25 q=28.0 size=    2816KiB time=00:01:41.80 bitrate= 226.6kbits/s speed=0.991x elapsed=0:01:42.68    frame= 2559 fps= 25 q=28.0 size=    2816KiB time=00:01:42.28 bitrate= 225.5kbits/s speed=0.991x elapsed=0:01:43.18    frame= 2573 fps= 25 q=28.0 size=    2816KiB time=00:01:42.84 bitrate= 224.3kbits/s speed=0.992x elapsed=0:01:43.68    frame= 2585 fps= 25 q=28.0 size=    2816KiB time=00:01:43.32 bitrate= 223.3kbits/s speed=0.992x elapsed=0:01:44.18    frame= 2597 fps= 25 q=28.0 size=    2816KiB time=00:01:43.84 bitrate= 222.2kbits/s speed=0.992x elapsed=0:01:44.68    frame= 2610 fps= 25 q=28.0 size=    2816KiB time=00:01:44.32 bitrate= 221.1kbits/s speed=0.992x elapsed=0:01:45.18    frame= 2623 fps= 25 q=28.0 size=    2816KiB time=00:01:44.84 bitrate= 220.0kbits/s speed=0.992x elapsed=0:01:45.68    frame= 2635 fps= 25 q=28.0 size=    3072KiB time=00:01:45.32 bitrate= 238.9kbits/s speed=0.992x elapsed=0:01:46.19    frame= 2648 fps= 25 q=28.0 size=    3072KiB time=00:01:45.84 bitrate= 237.8kbits/s speed=0.992x elapsed=0:01:46.69    frame= 2660 fps= 25 q=28.0 size=    3072KiB time=00:01:46.32 bitrate= 236.7kbits/s speed=0.992x elapsed=0:01:47.19    frame= 2673 fps= 25 q=28.0 size=    3072KiB time=00:01:46.84 bitrate= 235.5kbits/s speed=0.992x elapsed=0:01:47.69    frame= 2685 fps= 25 q=28.0 size=    3072KiB time=00:01:47.32 bitrate= 234.5kbits/s speed=0.992x elapsed=0:01:48.19    frame= 2698 fps= 25 q=28.0 size=    3072KiB time=00:01:47.84 bitrate= 233.4kbits/s speed=0.992x elapsed=0:01:48.69    frame= 2710 fps= 25 q=28.0 size=    3072KiB time=00:01:48.32 bitrate= 232.3kbits/s speed=0.992x elapsed=0:01:49.19    frame= 2723 fps= 25 q=28.0 size=    3072KiB time=00:01:48.84 bitrate= 231.2kbits/s speed=0.992x elapsed=0:01:49.69    frame= 2736 fps= 25 q=28.0 size=    3072KiB time=00:01:49.36 bitrate= 230.1kbits/s speed=0.992x elapsed=0:01:50.19    frame= 2748 fps= 25 q=28.0 size=    3072KiB time=00:01:49.84 bitrate= 229.1kbits/s speed=0.992x elapsed=0:01:50.70    frame= 2761 fps= 25 q=28.0 size=    3328KiB time=00:01:50.36 bitrate= 247.0kbits/s speed=0.992x elapsed=0:01:51.20    frame= 2773 fps= 25 q=28.0 size=    3328KiB time=00:01:50.84 bitrate= 246.0kbits/s speed=0.992x elapsed=0:01:51.70    frame= 2785 fps= 25 q=28.0 size=    3328KiB time=00:01:51.32 bitrate= 244.9kbits/s speed=0.992x elapsed=0:01:52.20    frame= 2798 fps= 25 q=28.0 size=    3328KiB time=00:01:51.84 bitrate= 243.8kbits/s speed=0.992x elapsed=0:01:52.70    frame= 2810 fps= 25 q=28.0 size=    3328KiB time=00:01:52.32 bitrate= 242.7kbits/s speed=0.992x elapsed=0:01:53.20    frame= 2823 fps= 25 q=28.0 size=    3328KiB time=00:01:52.84 bitrate= 241.6kbits/s speed=0.992x elapsed=0:01:53.70    frame= 2835 fps= 25 q=28.0 size=    3328KiB time=00:01:53.32 bitrate= 240.6kbits/s speed=0.992x elapsed=0:01:54.20    frame= 2848 fps= 25 q=28.0 size=    3328KiB time=00:01:53.84 bitrate= 239.5kbits/s speed=0.992x elapsed=0:01:54.70    frame= 2860 fps= 25 q=28.0 size=    3328KiB time=00:01:54.36 bitrate= 238.4kbits/s speed=0.993x elapsed=0:01:55.21    frame= 2873 fps= 25 q=28.0 size=    3328KiB time=00:01:54.84 bitrate= 237.4kbits/s speed=0.992x elapsed=0:01:55.71    frame= 2884 fps= 25 q=28.0 size=    3584KiB time=00:01:55.28 bitrate= 254.7kbits/s speed=0.992x elapsed=0:01:56.21    frame= 2898 fps= 25 q=28.0 size=    3584KiB time=00:01:55.84 bitrate= 253.5kbits/s speed=0.993x elapsed=0:01:56.71    frame= 2910 fps= 25 q=28.0 size=    3584KiB time=00:01:56.32 bitrate= 252.4kbits/s speed=0.992x elapsed=0:01:57.21    frame= 2923 fps= 25 q=28.0 size=    3584KiB time=00:01:56.84 bitrate= 251.3kbits/s speed=0.993x elapsed=0:01:57.71    frame= 2936 fps= 25 q=28.0 size=    3584KiB time=00:01:57.36 bitrate= 250.2kbits/s speed=0.993x elapsed=0:01:58.21    frame= 2948 fps= 25 q=28.0 size=    3584KiB time=00:01:57.84 bitrate= 249.2kbits/s speed=0.993x elapsed=0:01:58.71    frame= 2960 fps= 25 q=28.0 size=    3584KiB time=00:01:58.32 bitrate= 248.1kbits/s speed=0.992x elapsed=0:01:59.21    frame= 2972 fps= 25 q=28.0 size=    3584KiB time=00:01:58.80 bitrate= 247.1kbits/s speed=0.992x elapsed=0:01:59.72    frame= 2984 fps= 25 q=28.0 size=    3584KiB time=00:01:59.28 bitrate= 246.1kbits/s speed=0.992x elapsed=0:02:00.22    frame= 2998 fps= 25 q=28.0 size=    3584KiB time=00:01:59.84 bitrate= 245.0kbits/s speed=0.993x elapsed=0:02:00.73    frame= 3012 fps= 25 q=28.0 size=    3584KiB time=00:02:00.40 bitrate= 243.9kbits/s speed=0.993x elapsed=0:02:01.23    frame= 3024 fps= 25 q=28.0 size=    3584KiB time=00:02:00.88 bitrate= 242.9kbits/s speed=0.993x elapsed=0:02:01.73    frame= 3037 fps= 25 q=28.0 size=    3584KiB time=00:02:01.40 bitrate= 241.8kbits/s speed=0.993x elapsed=0:02:02.23    frame= 3049 fps= 25 q=28.0 size=    3584KiB time=00:02:01.88 bitrate= 240.9kbits/s speed=0.993x elapsed=0:02:02.73    frame= 3061 fps= 25 q=28.0 size=    3584KiB time=00:02:02.36 bitrate= 239.9kbits/s speed=0.993x elapsed=0:02:03.23    frame= 3074 fps= 25 q=28.0 size=    3584KiB time=00:02:02.88 bitrate= 238.9kbits/s speed=0.993x elapsed=0:02:03.73    frame= 3087 fps= 25 q=28.0 size=    3584KiB time=00:02:03.40 bitrate= 237.9kbits/s speed=0.993x elapsed=0:02:04.23    frame= 3099 fps= 25 q=28.0 size=    3584KiB time=00:02:03.88 bitrate= 237.0kbits/s speed=0.993x elapsed=0:02:04.73    frame= 3111 fps= 25 q=28.0 size=    3584KiB time=00:02:04.36 bitrate= 236.1kbits/s speed=0.993x elapsed=0:02:05.23    frame= 3124 fps= 25 q=28.0 size=    3584KiB time=00:02:04.88 bitrate= 235.1kbits/s speed=0.993x elapsed=0:02:05.73    frame= 3136 fps= 25 q=28.0 size=    3840KiB time=00:02:05.36 bitrate= 250.9kbits/s speed=0.993x elapsed=0:02:06.23    frame= 3149 fps= 25 q=28.0 size=    3840KiB time=00:02:05.88 bitrate= 249.9kbits/s speed=0.993x elapsed=0:02:06.73    frame= 3161 fps= 25 q=28.0 size=    3840KiB time=00:02:06.36 bitrate= 248.9kbits/s speed=0.993x elapsed=0:02:07.24    frame= 3174 fps= 25 q=28.0 size=    3840KiB time=00:02:06.88 bitrate= 247.9kbits/s speed=0.993x elapsed=0:02:07.74    frame= 3187 fps= 25 q=28.0 size=    3840KiB time=00:02:07.40 bitrate= 246.9kbits/s speed=0.993x elapsed=0:02:08.25    frame= 3200 fps= 25 q=28.0 size=    3840KiB time=00:02:07.92 bitrate= 245.9kbits/s speed=0.994x elapsed=0:02:08.75    frame= 3212 fps= 25 q=28.0 size=    3840KiB time=00:02:08.40 bitrate= 245.0kbits/s speed=0.993x elapsed=0:02:09.25    frame= 3224 fps= 25 q=28.0 size=    3840KiB time=00:02:08.88 bitrate= 244.1kbits/s speed=0.993x elapsed=0:02:09.75    frame= 3237 fps= 25 q=28.0 size=    3840KiB time=00:02:09.40 bitrate= 243.1kbits/s speed=0.993x elapsed=0:02:10.25    frame= 3249 fps= 25 q=28.0 size=    3840KiB time=00:02:09.88 bitrate= 242.2kbits/s speed=0.993x elapsed=0:02:10.75    frame= 3262 fps= 25 q=28.0 size=    4096KiB time=00:02:10.40 bitrate= 257.3kbits/s speed=0.993x elapsed=0:02:11.25    frame= 3275 fps= 25 q=28.0 size=    4096KiB time=00:02:10.92 bitrate= 256.3kbits/s speed=0.994x elapsed=0:02:11.75    frame= 3287 fps= 25 q=28.0 size=    4096KiB time=00:02:11.40 bitrate= 255.4kbits/s speed=0.994x elapsed=0:02:12.25    frame= 3299 fps= 25 q=28.0 size=    4096KiB time=00:02:11.88 bitrate= 254.4kbits/s speed=0.993x elapsed=0:02:12.75    frame= 3312 fps= 25 q=28.0 size=    4096KiB time=00:02:12.40 bitrate= 253.4kbits/s speed=0.994x elapsed=0:02:13.25    frame= 3325 fps= 25 q=28.0 size=    4096KiB time=00:02:12.92 bitrate= 252.4kbits/s speed=0.994x elapsed=0:02:13.75    frame= 3337 fps= 25 q=28.0 size=    4096KiB time=00:02:13.40 bitrate= 251.5kbits/s speed=0.994x elapsed=0:02:14.25    frame= 3350 fps= 25 q=28.0 size=    4096KiB time=00:02:13.92 bitrate= 250.6kbits/s speed=0.994x elapsed=0:02:14.75    frame= 3362 fps= 25 q=28.0 size=    4096KiB time=00:02:14.40 bitrate= 249.7kbits/s speed=0.994x elapsed=0:02:15.25    frame= 3375 fps= 25 q=28.0 size=    4096KiB time=00:02:14.92 bitrate= 248.7kbits/s speed=0.994x elapsed=0:02:15.76    frame= 3387 fps= 25 q=28.0 size=    4096KiB time=00:02:15.40 bitrate= 247.8kbits/s speed=0.994x elapsed=0:02:16.26    frame= 3400 fps= 25 q=28.0 size=    4096KiB time=00:02:15.92 bitrate= 246.9kbits/s speed=0.994x elapsed=0:02:16.76    frame= 3412 fps= 25 q=28.0 size=    4096KiB time=00:02:16.40 bitrate= 246.0kbits/s speed=0.994x elapsed=0:02:17.26    frame= 3424 fps= 25 q=28.0 size=    4096KiB time=00:02:16.88 bitrate= 245.1kbits/s speed=0.994x elapsed=0:02:17.76    frame= 3437 fps= 25 q=28.0 size=    4096KiB time=00:02:17.40 bitrate= 244.2kbits/s speed=0.994x elapsed=0:02:18.26    frame= 3450 fps= 25 q=28.0 size=    4096KiB time=00:02:17.92 bitrate= 243.3kbits/s speed=0.994x elapsed=0:02:18.76    frame= 3462 fps= 25 q=28.0 size=    4096KiB time=00:02:18.40 bitrate= 242.4kbits/s speed=0.994x elapsed=0:02:19.26    frame= 3475 fps= 25 q=28.0 size=    4096KiB time=00:02:18.92 bitrate= 241.5kbits/s speed=0.994x elapsed=0:02:19.76    frame= 3487 fps= 25 q=28.0 size=    4096KiB time=00:02:19.40 bitrate= 240.7kbits/s speed=0.994x elapsed=0:02:20.26    frame= 3499 fps= 25 q=28.0 size=    4096KiB time=00:02:19.88 bitrate= 239.9kbits/s speed=0.994x elapsed=0:02:20.76    frame= 3512 fps= 25 q=28.0 size=    4352KiB time=00:02:20.40 bitrate= 253.9kbits/s speed=0.994x elapsed=0:02:21.26    frame= 3525 fps= 25 q=28.0 size=    4352KiB time=00:02:20.92 bitrate= 253.0kbits/s speed=0.994x elapsed=0:02:21.76    frame= 3537 fps= 25 q=28.0 size=    4352KiB time=00:02:21.40 bitrate= 252.1kbits/s speed=0.994x elapsed=0:02:22.27    frame= 3550 fps= 25 q=28.0 size=    4352KiB time=00:02:21.92 bitrate= 251.2kbits/s speed=0.994x elapsed=0:02:22.77    frame= 3562 fps= 25 q=28.0 size=    4352KiB time=00:02:22.40 bitrate= 250.4kbits/s speed=0.994x elapsed=0:02:23.27    frame= 3575 fps= 25 q=28.0 size=    4352KiB time=00:02:22.92 bitrate= 249.5kbits/s speed=0.994x elapsed=0:02:23.77    frame= 3588 fps= 25 q=28.0 size=    4352KiB time=00:02:23.44 bitrate= 248.5kbits/s speed=0.994x elapsed=0:02:24.27    frame= 3600 fps= 25 q=28.0 size=    4352KiB time=00:02:23.92 bitrate= 247.7kbits/s speed=0.994x elapsed=0:02:24.77    frame= 3613 fps= 25 q=28.0 size=    4352KiB time=00:02:24.44 bitrate= 246.8kbits/s speed=0.994x elapsed=0:02:25.27    frame= 3625 fps= 25 q=28.0 size=    4352KiB time=00:02:24.92 bitrate= 246.0kbits/s speed=0.994x elapsed=0:02:25.77    frame= 3637 fps= 25 q=28.0 size=    4608KiB time=00:02:25.40 bitrate= 259.6kbits/s speed=0.994x elapsed=0:02:26.27    frame= 3650 fps= 25 q=28.0 size=    4608KiB time=00:02:25.92 bitrate= 258.7kbits/s speed=0.994x elapsed=0:02:26.77    frame= 3662 fps= 25 q=28.0 size=    4608KiB time=00:02:26.44 bitrate= 257.8kbits/s speed=0.994x elapsed=0:02:27.27    frame= 3675 fps= 25 q=28.0 size=    4608KiB time=00:02:26.92 bitrate= 256.9kbits/s speed=0.994x elapsed=0:02:27.77    frame= 3688 fps= 25 q=28.0 size=    4608KiB time=00:02:27.44 bitrate= 256.0kbits/s speed=0.994x elapsed=0:02:28.27    frame= 3700 fps= 25 q=28.0 size=    4608KiB time=00:02:27.92 bitrate= 255.2kbits/s speed=0.994x elapsed=0:02:28.77    frame= 3713 fps= 25 q=28.0 size=    4608KiB time=00:02:28.44 bitrate= 254.3kbits/s speed=0.994x elapsed=0:02:29.27    frame= 3725 fps= 25 q=28.0 size=    4608KiB time=00:02:28.92 bitrate= 253.5kbits/s speed=0.994x elapsed=0:02:29.78    frame= 3738 fps= 25 q=28.0 size=    4608KiB time=00:02:29.44 bitrate= 252.6kbits/s speed=0.994x elapsed=0:02:30.28    frame= 3750 fps= 25 q=28.0 size=    4608KiB time=00:02:29.92 bitrate= 251.8kbits/s speed=0.994x elapsed=0:02:30.78    frame= 3762 fps= 25 q=28.0 size=    4608KiB time=00:02:30.40 bitrate= 251.0kbits/s speed=0.994x elapsed=0:02:31.28    frame= 3775 fps= 25 q=28.0 size=    4608KiB time=00:02:30.92 bitrate= 250.1kbits/s speed=0.994x elapsed=0:02:31.78    frame= 3788 fps= 25 q=28.0 size=    4608KiB time=00:02:31.44 bitrate= 249.3kbits/s speed=0.994x elapsed=0:02:32.28    frame= 3800 fps= 25 q=28.0 size=    4608KiB time=00:02:31.92 bitrate= 248.5kbits/s speed=0.994x elapsed=0:02:32.78    frame= 3813 fps= 25 q=28.0 size=    4608KiB time=00:02:32.44 bitrate= 247.6kbits/s speed=0.994x elapsed=0:02:33.28    [out#0/matroska @ 0x562e92754500] video:4874KiB audio:0KiB subtitle:0KiB other streams:0KiB global headers:0KiB muxing overhead: 0.568841%
frame= 3845 fps= 25 q=-1.0 Lsize=    4902KiB time=00:02:33.72 bitrate= 261.2kbits/s speed=0.999x elapsed=0:02:33.91    
[libx264 @ 0x562e92755f00] frame I:16    Avg QP:11.61  size:118317
[libx264 @ 0x562e92755f00] frame P:969   Avg QP:17.34  size:  1735
[libx264 @ 0x562e92755f00] frame B:2860  Avg QP:24.80  size:   495
[libx264 @ 0x562e92755f00] consecutive B-frames:  0.8%  0.2%  0.2% 98.9%
[libx264 @ 0x562e92755f00] mb I  I16..4: 89.0%  1.9%  9.2%
[libx264 @ 0x562e92755f00] mb P  I16..4:  0.2%  0.1%  0.0%  P16..4:  0.3%  0.2%  0.1%  0.0%  0.0%    skip:99.1%
[libx264 @ 0x562e92755f00] mb B  I16..4:  0.0%  0.0%  0.0%  B16..8:  0.2%  0.1%  0.0%  direct: 0.0%  skip:99.6%  L0:45.7% L1:47.0% BI: 7.2%
[libx264 @ 0x562e92755f00] 8x8 transform intra:4.2% inter:2.1%
[libx264 @ 0x562e92755f00] coded y,uvDC,uvAC intra: 14.4% 20.8% 17.0% inter: 0.1% 0.1% 0.0%
[libx264 @ 0x562e92755f00] i16 v,h,dc,p: 69% 28%  2%  0%
[libx264 @ 0x562e92755f00] i8 v,h,dc,ddl,ddr,vr,hd,vl,hu: 13% 18% 63%  1%  1%  2%  1%  0%  1%
[libx264 @ 0x562e92755f00] i4 v,h,dc,ddl,ddr,vr,hd,vl,hu: 32% 28% 21%  3%  2%  6%  2%  4%  2%
[libx264 @ 0x562e92755f00] i8c dc,h,v,p: 62% 29%  9%  0%
[libx264 @ 0x562e92755f00] Weighted P-Frames: Y:0.0% UV:0.0%
[libx264 @ 0x562e92755f00] kb/s:259.58
Exiting normally, received signal 2.
